<?xml version="1.0" encoding="iso-8859-1"?>
<!-- Generator: Adobe Illustrator 19.0.0, SVG Export Plug-In . SVG Version: 6.00 Build 0)  -->
<svg version="1.1" id="Capa_1" xmlns="http://www.w3.org/2000/svg" xmlns:xlink="http://www.w3.org/1999/xlink" x="0px" y="0px"
	 viewBox="0 0 512 512" style="enable-background:new 0 0 512 512;" xml:space="preserve">
<g>
	<path style="fill:#F9A1C1;" d="M156.272,313.825c0-19.808-7.753-30.686-13.414-38.628c-3.717-5.216-6.103-8.58-6.93-14.348
		l-17.88-17.421l-15.332,17.421c1.183,16.651,8.058,26.352,13.218,33.59c4.682,6.568,7.262,10.186,7.262,19.385
		c0,9.2-2.58,12.816-7.262,19.385c-5.66,7.942-13.413,18.82-13.413,38.628c0,19.809,7.752,30.687,13.413,38.631
		c4.682,6.57,7.262,10.187,7.262,19.39c0,9.201-2.58,12.819-7.262,19.389c-5.661,7.943-13.413,18.822-13.413,38.631
		c0,9.147,7.405,16.562,16.539,16.562s16.539-7.415,16.539-16.562c0-9.201,2.579-12.819,7.262-19.389
		c5.66-7.943,13.413-18.823,13.413-38.631c0-19.809-7.753-30.687-13.413-38.631c-4.683-6.568-7.262-10.187-7.262-19.389
		c0-9.199,2.579-12.816,7.261-19.384C148.518,344.51,156.272,333.633,156.272,313.825z"/>
	<path style="fill:#F9A1C1;" d="M230.696,313.825c0-19.808-7.754-30.686-13.415-38.628c-3.717-5.216-6.102-8.58-6.929-14.348
		l-16.088-15.342l-17.125,15.342c1.183,16.651,8.059,26.352,13.218,33.59c4.682,6.568,7.261,10.186,7.261,19.385
		c0,9.2-2.579,12.816-7.261,19.385c-5.661,7.942-13.413,18.82-13.413,38.628c0,19.809,7.753,30.687,13.413,38.631
		c4.682,6.57,7.261,10.187,7.261,19.39c0,9.201-2.579,12.819-7.261,19.389c-5.661,7.943-13.413,18.822-13.413,38.631
		c0,9.147,7.405,16.562,16.539,16.562c9.135,0,16.54-7.415,16.54-16.562c0-9.201,2.578-12.819,7.26-19.389
		c5.661-7.943,13.414-18.823,13.414-38.631c0-19.809-7.754-30.687-13.414-38.631c-4.682-6.568-7.26-10.187-7.26-19.389
		c0-9.199,2.578-12.816,7.259-19.384C222.942,344.51,230.696,333.633,230.696,313.825z"/>
	<path style="fill:#F9A1C1;" d="M411.07,371.838c0-19.807-7.754-30.686-13.414-38.628c-4.681-6.569-7.261-10.185-7.261-19.385
		c0-9.199,2.579-12.817,7.261-19.385c5.159-7.238,12.036-16.939,13.219-33.59l-17.755-19.499l-15.458,19.499
		c-0.828,5.768-3.213,9.132-6.931,14.348c-5.661,7.942-13.414,18.82-13.414,38.628c0,19.808,7.753,30.686,13.414,38.629
		c4.681,6.568,7.261,10.185,7.261,19.384c0,9.201-2.579,12.819-7.262,19.389c-5.66,7.944-13.413,18.823-13.413,38.631
		s7.753,30.688,13.413,38.631c4.683,6.569,7.262,10.187,7.262,19.389c0,9.147,7.405,16.562,16.539,16.562
		c9.135,0,16.54-7.415,16.54-16.562c0-19.808-7.753-30.688-13.414-38.631c-4.681-6.57-7.261-10.188-7.261-19.39
		c0-9.202,2.579-12.819,7.261-19.39C403.317,402.525,411.07,391.646,411.07,371.838z"/>
	<path style="fill:#F9A1C1;" d="M336.647,371.838c0-19.807-7.753-30.686-13.414-38.628c-4.682-6.569-7.26-10.185-7.26-19.385
		c0-9.199,2.578-12.817,7.26-19.385c5.159-7.238,12.036-16.939,13.219-33.59l-17.469-18.113l-15.743,18.113
		c-0.828,5.768-3.213,9.132-6.93,14.348c-5.662,7.942-13.415,18.82-13.415,38.628c0,19.808,7.754,30.686,13.415,38.629
		c4.681,6.568,7.26,10.185,7.26,19.384c0,9.201-2.579,12.819-7.261,19.389c-5.661,7.944-13.414,18.823-13.414,38.631
		s7.754,30.688,13.414,38.631c4.682,6.569,7.261,10.187,7.261,19.389c0,9.147,7.405,16.562,16.54,16.562
		c9.135,0,16.538-7.415,16.538-16.562c0-19.808-7.753-30.688-13.413-38.631c-4.683-6.57-7.261-10.188-7.261-19.39
		c0-9.202,2.578-12.819,7.261-19.39C328.893,402.525,336.647,391.646,336.647,371.838z"/>
</g>
<g>
	<path style="fill:#F98DA8;" d="M135.598,371.838c0-9.198,2.579-12.816,7.261-19.383c5.661-7.943,13.414-18.821,13.414-38.629
		c0-19.808-7.753-30.686-13.414-38.628c-3.717-5.216-6.103-8.58-6.93-14.348H118.79c0.828,5.768,3.213,9.132,6.93,14.348
		c5.661,7.942,13.414,18.82,13.414,38.628c0,19.808-7.753,30.686-13.414,38.629c-4.682,6.568-7.261,10.185-7.261,19.383
		c0,9.201,2.579,12.819,7.262,19.389c5.66,7.944,13.413,18.822,13.413,38.631c0,19.808-7.753,30.688-13.413,38.631
		c-4.683,6.57-7.262,10.187-7.262,19.389c0,6-3.198,11.241-7.969,14.146c2.501,1.523,5.428,2.417,8.569,2.417
		c9.134,0,16.539-7.415,16.539-16.562c0-9.201,2.579-12.819,7.262-19.388c5.66-7.943,13.413-18.823,13.413-38.631
		c0-19.809-7.753-30.687-13.413-38.631C138.177,384.657,135.598,381.039,135.598,371.838z"/>
	<path style="fill:#F98DA8;" d="M210.022,371.838c0-9.198,2.578-12.816,7.259-19.383c5.662-7.943,13.415-18.821,13.415-38.629
		c0-19.808-7.754-30.686-13.415-38.628c-3.717-5.216-6.102-8.58-6.929-14.348h-17.138c0.827,5.768,3.212,9.132,6.929,14.348
		c5.662,7.942,13.415,18.82,13.415,38.628c0,19.808-7.754,30.686-13.415,38.629c-4.681,6.568-7.259,10.185-7.259,19.383
		c0,9.201,2.578,12.819,7.26,19.389c5.661,7.944,13.414,18.822,13.414,38.631c0,19.808-7.754,30.688-13.414,38.631
		c-4.682,6.57-7.26,10.187-7.26,19.389c0,6-3.199,11.241-7.97,14.146c2.501,1.523,5.428,2.417,8.569,2.417
		c9.135,0,16.54-7.415,16.54-16.562c0-9.201,2.578-12.819,7.26-19.388c5.661-7.943,13.414-18.823,13.414-38.631
		c0-19.809-7.754-30.687-13.414-38.631C212.6,384.657,210.022,381.039,210.022,371.838z"/>
	<path style="fill:#F98DA8;" d="M390.396,429.857c0-9.202,2.579-12.819,7.261-19.388c5.661-7.943,13.414-18.822,13.414-38.631
		c0-19.807-7.754-30.685-13.414-38.627c-4.681-6.569-7.261-10.185-7.261-19.385c0-9.199,2.579-12.817,7.261-19.385
		c5.159-7.238,12.036-16.939,13.219-33.59h-17.138c-1.183,16.651-8.059,26.352-13.219,33.59c-4.681,6.568-7.261,10.186-7.261,19.385
		c0,9.2,2.579,12.816,7.261,19.385c5.661,7.942,13.414,18.82,13.414,38.627c0,19.809-7.753,30.687-13.414,38.631
		c-4.681,6.57-7.261,10.186-7.261,19.388c0,9.201,2.579,12.819,7.261,19.389c5.661,7.943,13.414,18.822,13.414,38.631
		c0,6-3.199,11.241-7.97,14.146c2.501,1.523,5.428,2.417,8.569,2.417c9.135,0,16.54-7.415,16.54-16.562
		c0-19.808-7.753-30.688-13.414-38.631C392.975,442.676,390.396,439.058,390.396,429.857z"/>
	<path style="fill:#F98DA8;" d="M315.973,429.857c0-9.202,2.578-12.819,7.261-19.388c5.66-7.943,13.413-18.822,13.413-38.631
		c0-19.807-7.753-30.685-13.414-38.627c-4.682-6.569-7.26-10.185-7.26-19.385c0-9.199,2.578-12.817,7.26-19.385
		c5.159-7.238,12.036-16.939,13.219-33.59h-17.138c-1.183,16.651-8.059,26.352-13.219,33.59c-4.682,6.568-7.26,10.186-7.26,19.385
		c0,9.2,2.578,12.816,7.26,19.385c5.661,7.942,13.414,18.82,13.414,38.627c0,19.809-7.753,30.687-13.413,38.631
		c-4.683,6.57-7.261,10.186-7.261,19.388c0,9.201,2.578,12.819,7.261,19.389c5.66,7.943,13.413,18.822,13.413,38.631
		c0,6.001-3.198,11.241-7.969,14.146c2.501,1.523,5.428,2.417,8.569,2.417c9.135,0,16.538-7.415,16.538-16.562
		c0-19.808-7.753-30.688-13.413-38.631C318.552,442.676,315.973,439.058,315.973,429.857z"/>
</g>
<path style="fill:#F9A1C1;" d="M432.214,260.817c7.553-20.355,11.686-42.372,11.686-65.357c0-103.775-84.125-187.9-187.899-187.9
	c-103.775,0-187.901,84.125-187.901,187.9c0,22.984,4.134,45,11.686,65.357H432.214z"/>
<g>
	<path style="fill:#F98DA8;" d="M256.002,7.561c-4.066,0-8.096,0.144-12.098,0.398c98.134,6.238,175.802,87.793,175.802,187.502
		c0,22.984-4.134,45-11.686,65.357h24.195c7.553-20.355,11.686-42.372,11.686-65.357C443.901,91.686,359.776,7.561,256.002,7.561z"
		/>
	<circle style="fill:#F98DA8;" cx="132.562" cy="205.569" r="18.819"/>
	<circle style="fill:#F98DA8;" cx="252.197" cy="205.569" r="18.819"/>
	<circle style="fill:#F98DA8;" cx="371.823" cy="205.569" r="18.819"/>
</g>
<path d="M256.002,0c-43.897,0-85.371,14.217-119.936,41.112c-3.296,2.564-3.888,7.315-1.324,10.611
	c2.564,3.295,7.313,3.887,10.611,1.324c31.885-24.81,70.146-37.924,110.649-37.924c54.887,0,104.117,24.655,137.221,63.463
	c-35.575,32.131-76.407,51.356-128.213,60.392c-52.042,9.078-139.498,2.126-175.409-13.181
	c8.503-20.303,20.753-39.054,36.406-55.329c2.895-3.009,2.802-7.796-0.208-10.691c-3.01-2.894-7.797-2.801-10.691,0.209
	C79.92,96.57,60.54,144.683,60.54,195.461c0,23.368,4.091,46.242,12.159,67.987c1.1,2.964,3.928,4.931,7.089,4.931h16.234
	c2.533,14.693,9.162,24.007,13.756,30.454c4.379,6.145,5.855,8.214,5.855,14.994c0,6.778-1.474,8.846-5.858,14.997
	c-5.9,8.279-14.816,20.79-14.816,43.014c0,22.227,8.916,34.739,14.822,43.026c4.377,6.144,5.852,8.213,5.852,14.994
	c0,6.781-1.475,8.85-5.857,15c-5.901,8.279-14.817,20.79-14.817,43.019c0,13.301,10.811,24.123,24.1,24.123s24.1-10.821,24.1-24.123
	c0-6.783,1.476-8.852,5.858-15.002c5.901-8.28,14.816-20.792,14.816-43.017c0-22.223-8.915-34.735-14.817-43.02
	c-4.381-6.147-5.857-8.216-5.857-14.999c0-6.78,1.475-8.849,5.857-14.997c5.901-8.279,14.817-20.79,14.817-43.015
	c0-22.227-8.917-34.738-14.818-43.015c-0.64-0.899-1.206-1.698-1.713-2.432h23.143c2.533,14.694,9.162,24.007,13.754,30.451
	c4.38,6.146,5.856,8.216,5.856,14.996c0,6.78-1.475,8.848-5.856,14.996c-5.901,8.278-14.818,20.788-14.818,43.015
	c0,22.226,8.916,34.738,14.82,43.022c4.379,6.145,5.854,8.215,5.854,14.997s-1.476,8.852-5.857,15.001
	c-5.901,8.279-14.817,20.792-14.817,43.018c0,13.301,10.811,24.123,24.1,24.123c13.289,0,24.101-10.821,24.101-24.123
	c0-6.784,1.476-8.854,5.856-15.001c5.901-8.28,14.818-20.793,14.818-43.018c0-22.223-8.915-34.736-14.818-43.019
	c-4.38-6.146-5.856-8.215-5.856-15c0-6.781,1.475-8.85,5.856-14.996c5.901-8.279,14.818-20.79,14.818-43.015
	c0-22.227-8.918-34.738-14.819-43.015c-0.64-0.899-1.206-1.698-1.712-2.432h70.137c-0.507,0.734-1.071,1.531-1.711,2.431
	c-5.902,8.278-14.82,20.789-14.82,43.016c0,22.225,8.917,34.737,14.821,43.019c4.378,6.145,5.854,8.214,5.854,14.993
	c0,6.783-1.476,8.853-5.859,15.004c-5.9,8.28-14.815,20.792-14.815,43.015c0,22.225,8.917,34.738,14.82,43.022
	c4.379,6.146,5.854,8.215,5.854,14.997c0,13.301,10.811,24.123,24.101,24.123c13.288,0,24.1-10.821,24.1-24.123
	c0-22.225-8.916-34.737-14.817-43.019c-4.38-6.147-5.856-8.216-5.856-15c0-6.784,1.476-8.854,5.859-15.004
	c5.9-8.279,14.814-20.791,14.814-43.015c0-22.226-8.917-34.737-14.82-43.018c-4.378-6.144-5.854-8.213-5.854-14.994
	c0-6.782,1.475-8.851,5.855-14.997c4.592-6.443,11.221-15.756,13.754-30.45h23.142c-0.507,0.734-1.072,1.532-1.712,2.431
	c-5.901,8.278-14.818,20.789-14.818,43.016c0,22.225,8.916,34.736,14.819,43.018c4.38,6.145,5.855,8.214,5.855,14.994
	c0,6.783-1.476,8.853-5.86,15.004c-5.899,8.28-14.814,20.792-14.814,43.015c0,22.225,8.916,34.738,14.818,43.02
	c4.38,6.147,5.856,8.216,5.856,14.999c0,13.301,10.811,24.123,24.1,24.123c13.289,0,24.101-10.821,24.101-24.123
	c0-22.227-8.917-34.739-14.819-43.02c-4.38-6.147-5.855-8.217-5.855-14.999c0-6.782,1.475-8.851,5.857-15.002
	c5.901-8.279,14.817-20.792,14.817-43.017c0-22.225-8.917-34.736-14.822-43.02c-4.378-6.144-5.853-8.212-5.853-14.992
	c0-6.781,1.476-8.85,5.856-14.997c4.592-6.444,11.221-15.758,13.754-30.45h14.647c3.161,0,5.989-1.967,7.089-4.931
	c8.068-21.745,12.159-44.618,12.159-67.987C451.462,87.684,363.779,0,256.002,0z M136.7,348.066
	c-5.03,7.056-8.664,12.154-8.664,23.772c0,11.621,3.634,16.72,8.667,23.779c5.35,7.509,12.008,16.853,12.008,34.24
	c0,17.389-6.659,26.734-12.011,34.244c-5.03,7.057-8.664,12.156-8.664,23.775c0,4.963-4.028,9.001-8.977,9.001
	c-4.95,0-8.977-4.038-8.977-9.001c0-17.391,6.659-26.735,12.014-34.248c5.028-7.057,8.661-12.154,8.661-23.772
	s-3.632-16.715-8.665-23.777c-5.351-7.508-12.01-16.852-12.01-34.242c0-17.387,6.659-26.731,12.015-34.247
	c5.027-7.054,8.659-12.15,8.659-23.765c0-11.616-3.633-16.715-8.665-23.774c-3.842-5.391-8.433-11.834-10.655-21.641h18.673
	c1.594,4.161,3.971,7.498,6.593,11.175c5.351,7.507,12.01,16.85,12.01,34.239C148.711,331.214,142.052,340.557,136.7,348.066z
	 M211.123,348.065c-5.03,7.057-8.663,12.155-8.663,23.773c0,11.622,3.633,16.72,8.665,23.779c5.35,7.509,12.009,16.853,12.009,34.24
	c0,17.389-6.659,26.734-12.011,34.242c-5.03,7.057-8.663,12.157-8.663,23.777c0,4.963-4.028,9.001-8.978,9.001
	c-4.95,0-8.977-4.038-8.977-9.001c0-17.39,6.659-26.735,12.011-34.244c5.03-7.057,8.663-12.156,8.663-23.775
	s-3.633-16.718-8.665-23.778c-5.35-7.509-12.009-16.852-12.009-34.241c0-17.39,6.659-26.732,12.014-34.244
	c5.028-7.055,8.66-12.152,8.66-23.768c0-11.618-3.633-16.717-8.664-23.774c-3.842-5.391-8.434-11.834-10.655-21.641h18.673
	c1.594,4.162,3.97,7.498,6.592,11.176c5.351,7.507,12.011,16.849,12.011,34.238C223.135,331.214,216.475,340.557,211.123,348.065z
	 M317.076,290.051c-5.03,7.057-8.663,12.155-8.663,23.774c0,11.618,3.633,16.716,8.663,23.774
	c5.351,7.507,12.01,16.849,12.01,34.238c0,17.388-6.658,26.732-12.009,34.242c-5.03,7.057-8.664,12.156-8.664,23.777
	s3.634,16.72,8.665,23.778c5.35,7.509,12.009,16.853,12.009,34.241c0,4.963-4.028,9.001-8.977,9.001
	c-4.951,0-8.978-4.038-8.978-9.001c0-11.618-3.633-16.717-8.664-23.777c-5.351-7.509-12.01-16.853-12.01-34.242
	c0-17.387,6.658-26.732,12.011-34.243c5.03-7.057,8.664-12.157,8.664-23.776c0-11.616-3.633-16.714-8.664-23.774
	c-5.351-7.508-12.01-16.851-12.01-34.238c0-17.39,6.66-26.732,12.012-34.24c2.718-3.816,5.049-7.086,6.606-11.174h18.659
	C325.51,278.218,320.918,284.661,317.076,290.051z M391.499,290.051c-5.03,7.057-8.664,12.156-8.664,23.774
	c0,11.616,3.632,16.714,8.665,23.774c5.35,7.508,12.01,16.85,12.01,34.238c0,17.389-6.659,26.734-12.014,34.247
	c-5.028,7.056-8.66,12.154-8.66,23.773c0,11.619,3.633,16.718,8.664,23.777c5.351,7.508,12.01,16.852,12.01,34.242
	c0,4.963-4.027,9.001-8.978,9.001c-4.95,0-8.977-4.038-8.977-9.001c0-11.62-3.634-16.718-8.665-23.777
	c-5.35-7.509-12.009-16.853-12.009-34.242c0-17.387,6.658-26.732,12.009-34.242c5.031-7.057,8.665-12.156,8.665-23.777
	c0-11.617-3.633-16.716-8.665-23.774c-5.35-7.508-12.009-16.851-12.009-34.238c0-17.389,6.659-26.733,12.011-34.239
	c2.621-3.678,4.998-7.015,6.592-11.175h18.673C399.934,278.217,395.341,284.661,391.499,290.051z M426.874,253.256H85.129
	c-6.284-18.573-9.466-37.989-9.466-57.796c0-19.094,2.972-37.779,8.688-55.502c27.407,11.268,78.62,18.192,125.699,18.192
	c20.795,0,40.79-1.352,57.559-4.277c54.368-9.483,97.381-29.656,134.967-63.354c21.24,29.583,33.765,65.825,33.765,104.941
	C436.34,215.268,433.158,234.683,426.874,253.256z"/>
<path d="M132.563,179.19c-14.545,0-26.38,11.834-26.38,26.38c0,14.545,11.834,26.38,26.38,26.38c14.546,0,26.38-11.834,26.38-26.38
	C158.943,191.024,147.108,179.19,132.563,179.19z M132.563,216.827c-6.207,0-11.258-5.05-11.258-11.258
	c0-6.208,5.05-11.258,11.258-11.258c6.208,0,11.258,5.05,11.258,11.258C143.82,211.778,138.77,216.827,132.563,216.827z"/>
<path d="M252.195,179.19c-14.545,0-26.38,11.834-26.38,26.38c0,14.545,11.834,26.38,26.38,26.38s26.38-11.834,26.38-26.38
	C278.575,191.024,266.741,179.19,252.195,179.19z M252.195,216.827c-6.207,0-11.258-5.05-11.258-11.258
	c0-6.208,5.05-11.258,11.258-11.258c6.208,0,11.258,5.05,11.258,11.258C263.453,211.778,258.402,216.827,252.195,216.827z"/>
<path d="M371.828,179.19c-14.546,0-26.38,11.834-26.38,26.38c0,14.545,11.834,26.38,26.38,26.38c14.545,0,26.38-11.834,26.38-26.38
	C398.207,191.024,386.373,179.19,371.828,179.19z M371.828,216.827c-6.208,0-11.258-5.05-11.258-11.258
	c0-6.208,5.05-11.258,11.258-11.258c6.207,0,11.258,5.05,11.258,11.258C383.085,211.778,378.035,216.827,371.828,216.827z"/>
<g>
</g>
<g>
</g>
<g>
</g>
<g>
</g>
<g>
</g>
<g>
</g>
<g>
</g>
<g>
</g>
<g>
</g>
<g>
</g>
<g>
</g>
<g>
</g>
<g>
</g>
<g>
</g>
<g>
</g>
</svg>
