<?xml version="1.0" encoding="iso-8859-1"?>
<!-- Generator: Adobe Illustrator 18.0.0, SVG Export Plug-In . SVG Version: 6.00 Build 0)  -->
<!DOCTYPE svg PUBLIC "-//W3C//DTD SVG 1.1//EN" "http://www.w3.org/Graphics/SVG/1.1/DTD/svg11.dtd">
<svg version="1.1" id="Capa_1" xmlns="http://www.w3.org/2000/svg" xmlns:xlink="http://www.w3.org/1999/xlink" x="0px" y="0px"
	 viewBox="0 0 405.871 405.871" style="enable-background:new 0 0 405.871 405.871;" xml:space="preserve">
<path d="M256.683,160.779c-4.758-14.251-27.335-40.694-34.065-40.694c-6.729,0-8.82,43.295-23.759,47.036
	c-14.345,3.585-84.357,20.197-84.357,20.197s-11.525-9.384-15.046-8.717c-2.96,0.563-4.395,13.707-13.446,14.395
	c-9.04,0.685-20.964,0.146-20.964,0.146C44.049,151.152,0,148.893,0,148.893c22.624,33.66,44.4,55.834,13.513,102.573
	c21.385,0,48.714-32.472,50.694-39.601c7.574-2.002,16.29-1.928,20.991,3.563c3.563,4.162,3.66,6.077,6.437,6.869
	c2.771,0.791,5.838-6.073,10.593-6.073c4.752,0,27.786,7.29,33.663,9.105c5.872,1.812,11.88,22.567,19.404,23.362
	c7.522,0.796,24.553-13.86,28.513-13.86c3.961,0,33.266,4.354,65.743,3.161c5.544,5.944,12.682,17.945-1.805,40.407
	c-2.767,4.357-1.979,11.487,7.134,4.357c9.106-7.134,25.918-17.127,42.948-48.015c17.424-1.587,108.042-23.669,108.042-39.904
	C405.871,178.601,306.186,159.194,256.683,160.779z"/>
<g>
</g>
<g>
</g>
<g>
</g>
<g>
</g>
<g>
</g>
<g>
</g>
<g>
</g>
<g>
</g>
<g>
</g>
<g>
</g>
<g>
</g>
<g>
</g>
<g>
</g>
<g>
</g>
<g>
</g>
</svg>
